# xmcd
#
# Track frame offsets: 
#        150
#        17325
#        37490
#        52401
#        68628
#        93896
#        113464
#        133495
#        156042
#        180856
#        203872
#        243773
#
# Disc length: 3295 seconds
#
# Revision: 4
# Processed by: cddbd v1.5.2PL0 Copyright (c) Steve Scherf et al.
# Submitted via: ExactAudioCopy v0.99pb4
#
DISCID=9c0cdd0c
DTITLE=SHeDAISY - The Whole SHeBANG - All Mixed Up
DYEAR=2001
DGENRE=Country
TTITLE0=Little Good-Byes
TTITLE1=I Will... But
TTITLE2=This Woman Needs
TTITLE3=Before Me And You
TTITLE4=Lucky 4 You (Tonight I'm Just Me)
TTITLE5=Still Holding Out For You
TTITLE6=Punishment
TTITLE7='Cause I Like It That Way
TTITLE8=Without Your Love
TTITLE9=A Night To Remember
TTITLE10=Dancing With Angels
TTITLE11=Data Track
EXTD=YEAR: 2001 ID3G:   2
EXTT0=
EXTT1=
EXTT2=
EXTT3=
EXTT4=
EXTT5=
EXTT6=
EXTT7=
EXTT8=
EXTT9=
EXTT10=
EXTT11=
PLAYORDER=
